<svg id="Layer_1" data-name="Layer 1" xmlns="http://www.w3.org/2000/svg" xmlns:xlink="http://www.w3.org/1999/xlink" viewBox="0 0 48.64 41.16"><defs><style>.cls-1{fill:url(#Degradado_sin_nombre_560);}.cls-2{fill:url(#Degradado_sin_nombre_560-2);}.cls-3{fill:url(#Degradado_sin_nombre_560-3);}.cls-4{fill:url(#Degradado_sin_nombre_560-4);}.cls-5{fill:url(#Degradado_sin_nombre_560-5);}.cls-6{fill:url(#Degradado_sin_nombre_560-6);}.cls-7{fill:url(#Degradado_sin_nombre_560-7);}.cls-8{fill:url(#Degradado_sin_nombre_26);}.cls-9{fill:url(#Degradado_sin_nombre_26-2);}.cls-10{fill:url(#Degradado_sin_nombre_26-3);}.cls-11{fill:url(#Degradado_sin_nombre_26-4);}.cls-12{fill:url(#Degradado_sin_nombre_26-5);}.cls-13{fill:url(#Degradado_sin_nombre_26-6);}.cls-14{fill:url(#Degradado_sin_nombre_26-7);}</style><linearGradient id="Degradado_sin_nombre_560" x1="29.84" y1="24.28" x2="48.52" y2="24.28" gradientUnits="userSpaceOnUse"><stop offset="0" stop-color="#90145a"/><stop offset="0.27" stop-color="#aa1e57" stop-opacity="0.99"/><stop offset="0.85" stop-color="#ec3751" stop-opacity="0.98"/><stop offset="1" stop-color="#ff3e4f" stop-opacity="0.97"/></linearGradient><linearGradient id="Degradado_sin_nombre_560-2" x1="26.2" y1="27.78" x2="44.45" y2="27.78" xlink:href="#Degradado_sin_nombre_560"/><linearGradient id="Degradado_sin_nombre_560-3" x1="26.2" y1="11.85" x2="34.15" y2="11.85" xlink:href="#Degradado_sin_nombre_560"/><linearGradient id="Degradado_sin_nombre_560-4" x1="0" y1="37.39" x2="38.1" y2="37.39" xlink:href="#Degradado_sin_nombre_560"/><linearGradient id="Degradado_sin_nombre_560-5" x1="0" y1="31.76" x2="33.99" y2="31.76" xlink:href="#Degradado_sin_nombre_560"/><linearGradient id="Degradado_sin_nombre_560-6" x1="7.88" y1="28.08" x2="13.14" y2="17.22" xlink:href="#Degradado_sin_nombre_560"/><linearGradient id="Degradado_sin_nombre_560-7" x1="14" y1="27.08" x2="18.7" y2="17.37" xlink:href="#Degradado_sin_nombre_560"/><linearGradient id="Degradado_sin_nombre_26" x1="29.96" y1="24.23" x2="48.64" y2="24.23" gradientUnits="userSpaceOnUse"><stop offset="0" stop-color="#90145a"/><stop offset="0.2" stop-color="#9c1d58" stop-opacity="0.83"/><stop offset="0.63" stop-color="#b93553" stop-opacity="0.41"/><stop offset="1" stop-color="#d54c4f" stop-opacity="0"/></linearGradient><linearGradient id="Degradado_sin_nombre_26-2" x1="26.33" y1="27.73" x2="44.57" y2="27.73" xlink:href="#Degradado_sin_nombre_26"/><linearGradient id="Degradado_sin_nombre_26-3" x1="26.33" y1="11.79" x2="34.27" y2="11.79" xlink:href="#Degradado_sin_nombre_26"/><linearGradient id="Degradado_sin_nombre_26-4" x1="0.12" y1="37.35" x2="38.22" y2="37.35" xlink:href="#Degradado_sin_nombre_26"/><linearGradient id="Degradado_sin_nombre_26-5" x1="0.12" y1="31.72" x2="34.11" y2="31.72" xlink:href="#Degradado_sin_nombre_26"/><linearGradient id="Degradado_sin_nombre_26-6" x1="8" y1="28.08" x2="13.26" y2="17.22" xlink:href="#Degradado_sin_nombre_26"/><linearGradient id="Degradado_sin_nombre_26-7" x1="14.12" y1="27.08" x2="18.82" y2="17.37" xlink:href="#Degradado_sin_nombre_26"/></defs><title>logo</title><polygon class="cls-1" points="44.45 40.44 48.52 33.09 34.15 8.13 29.84 15.58 44.45 40.44"/><polygon class="cls-2" points="44.45 40.44 41.39 40.42 26.2 15.12 29.84 15.58 44.45 40.44"/><polygon class="cls-3" points="26.2 15.15 30.54 8.11 34.15 8.13 29.84 15.58 26.2 15.15"/><polygon class="cls-4" points="0 33.62 3.57 41.08 38.1 41.16 33.99 33.64 0 33.62"/><polygon class="cls-5" points="0 33.62 1.91 29.87 31.32 29.95 33.99 33.64 0 33.62"/><polygon class="cls-6" points="11.91 25.19 3.91 25.19 18.5 0 26.81 0.08 11.91 25.19"/><polygon class="cls-7" points="11.89 25.19 16.06 23.96 28.94 2.47 26.81 0.08 11.89 25.19"/><polygon class="cls-8" points="44.57 40.38 48.64 33.04 34.27 8.08 29.96 15.53 44.57 40.38"/><polygon class="cls-9" points="44.57 40.38 41.52 40.37 26.33 15.07 29.96 15.53 44.57 40.38"/><polygon class="cls-10" points="26.33 15.1 30.66 8.06 34.27 8.08 29.96 15.53 26.33 15.1"/><polygon class="cls-11" points="0.12 33.58 3.69 41.04 38.22 41.12 34.11 33.6 0.12 33.58"/><polygon class="cls-12" points="0.12 33.58 2.03 29.83 31.44 29.91 34.11 33.6 0.12 33.58"/><polygon class="cls-13" points="12.03 25.19 4.03 25.19 18.62 0 26.93 0.08 12.03 25.19"/><polygon class="cls-14" points="12.01 25.19 16.18 23.96 29.06 2.47 26.93 0.08 12.01 25.19"/></svg>